<svg width="47" height="49" viewBox="0 0 47 49" fill="none" xmlns="http://www.w3.org/2000/svg">
<path id="Vector" fill-rule="evenodd" clip-rule="evenodd" d="M20.8349 26.5248L15.3801 4.06498C15.2294 3.45055 14.9535 2.8738 14.5699 2.37077C14.1861 1.86775 13.7029 1.44925 13.1501 1.14142C12.5974 0.833592 11.9871 0.643047 11.3575 0.581689C10.7278 0.520332 10.0922 0.58948 9.49047 0.784815L3.5875 2.70377C2.98524 2.89826 2.42957 3.21489 1.95524 3.63388C1.4809 4.05286 1.09809 4.56519 0.830742 5.13884C0.563394 5.71249 0.417254 6.3351 0.401458 6.96779C0.385662 7.60048 0.500549 8.22963 0.738938 8.8159L9.53694 30.1934C9.97631 31.2687 10.8059 32.1382 11.8593 32.6277C12.9128 33.1172 14.1123 33.1904 15.2175 32.8328L17.7904 31.9962C18.8951 31.6372 19.8231 30.8737 20.3878 29.8587C20.9525 28.8438 21.1123 27.6526 20.8349 26.5248ZM21.6549 48.2542C20.4689 48.6376 19.1959 48.661 17.9966 48.3214C16.7972 47.982 15.7253 47.2947 14.9163 46.3465C14.1073 45.3984 13.5971 44.2317 13.4506 42.9939C13.304 41.7561 13.5274 40.5026 14.0925 39.3916C14.6577 38.2807 15.5395 37.3621 16.6263 36.7518C17.713 36.1416 18.9563 35.8669 20.1992 35.9626C21.4419 36.0583 22.6285 36.52 23.6091 37.2896C24.5896 38.059 25.3203 39.1018 25.7086 40.2862C25.9676 41.0755 26.0679 41.9082 26.0042 42.7363C25.9405 43.5645 25.7137 44.372 25.337 45.1123C24.9604 45.8527 24.4412 46.5114 23.8094 47.0505C23.1775 47.5897 22.4453 47.9988 21.6549 48.2542ZM34.759 42.4874C42.8531 39.858 49.3869 30.5254 46.1367 20.5189C42.883 10.5191 32.1129 6.80399 24.0188 9.43343C23.1101 9.72796 22.3468 10.3557 21.8823 11.1904C21.4179 12.025 21.2869 13.0046 21.5155 13.9321L22.3322 17.2952C22.457 17.8 22.6843 18.2739 23 18.6871C23.3158 19.1002 23.7133 19.444 24.1677 19.697C24.6221 19.9498 25.1237 20.1064 25.6413 20.1571C26.1589 20.2077 26.6813 20.1512 27.1761 19.991L27.5081 19.8848C28.309 19.6002 29.1587 19.4788 30.0073 19.5282C30.8558 19.5775 31.6858 19.7962 32.4484 20.1717C33.2109 20.5472 33.8905 21.0716 34.4469 21.7141C35.0033 22.3566 35.4255 23.104 35.6882 23.9124C35.9509 24.7207 36.0489 25.5735 35.9765 26.4204C35.9042 27.2672 35.6627 28.091 35.2666 28.843C34.8705 29.5951 34.3277 30.26 33.6704 30.7988C33.0129 31.3375 32.2541 31.739 31.439 31.9796L31.1069 32.0858C30.6131 32.2473 30.1579 32.5089 29.7695 32.8543C29.3813 33.1996 29.0684 33.6213 28.8503 34.0929C28.6323 34.5645 28.5137 35.0761 28.5021 35.5956C28.4906 36.115 28.5862 36.6314 28.783 37.1122L30.0878 40.3195C30.4485 41.204 31.1307 41.9193 31.9973 42.3214C32.8639 42.7237 33.8505 42.783 34.759 42.4874Z" fill="#283618"/>
</svg>
