<svg width="215" height="38" viewBox="0 0 215 38" fill="none" xmlns="http://www.w3.org/2000/svg">
<path id="Vector" fill-rule="evenodd" clip-rule="evenodd" d="M7.59795 8.07218C11.5307 5.96631 16.3768 6.35162 19.6601 9.63195C22.8099 12.7878 22.8736 17.3244 22.8736 19.1087C22.8736 24.1611 20.54 28.4185 16.0975 29.7294C10.1833 31.541 1.12536 29.9418 1.12536 29.9418C0.92443 29.9195 0.738738 29.8238 0.603831 29.6732C0.469033 29.5228 0.394232 29.3277 0.394012 29.1256V1.20816C0.394012 1.03191 0.463991 0.862879 0.588697 0.738249C0.713295 0.613619 0.88231 0.54361 1.05857 0.54361H6.60567C6.78193 0.54361 6.95094 0.613619 7.07554 0.738249C7.20025 0.862879 7.27022 1.03191 7.27022 1.20816V7.88408C7.27044 7.92235 7.28064 7.95987 7.29984 7.99288C7.31914 8.026 7.34678 8.05342 7.3799 8.07251C7.41314 8.09148 7.45065 8.10157 7.48892 8.10146C7.5272 8.10146 7.56482 8.09137 7.59795 8.07218ZM7.54026 24.0732C9.24568 24.5526 12.6504 24.7346 14.5985 22.7106V22.7167C15.9337 21.4179 17.4965 17.2182 14.3588 14.0805C13.0358 12.7271 10.8692 11.9958 7.85888 13.2521C7.68065 13.3373 7.5305 13.4716 7.42619 13.6395C7.32188 13.8072 7.2677 14.0013 7.27022 14.1988V23.6908C7.26748 23.7752 7.29249 23.8582 7.34118 23.9272C7.38988 23.9962 7.45986 24.0474 7.54026 24.0732ZM103.652 1.22642V30.1027C103.653 30.22 103.7 30.3322 103.782 30.4151C103.866 30.498 103.978 30.545 104.095 30.5457H110.125C110.242 30.5457 110.355 30.4991 110.439 30.4162C110.522 30.3332 110.569 30.2205 110.57 30.1027V1.22642C110.57 1.05016 110.5 0.88113 110.376 0.7565C110.251 0.63187 110.082 0.561861 109.906 0.561861H104.311C104.135 0.563462 103.968 0.634184 103.845 0.758639C103.721 0.883093 103.652 1.05121 103.652 1.22642ZM49.7775 25.4387C49.4385 25.3911 49.1169 25.2585 48.8429 25.0533C48.5394 24.7863 48.3785 24.3159 48.3452 23.5512V7.57456C48.3444 7.42111 48.2831 7.27414 48.1745 7.16567C48.066 7.05708 47.9191 6.99577 47.7656 6.995H42.0789C41.9252 6.995 41.7778 7.0561 41.6691 7.16479C41.5604 7.27348 41.4994 7.42089 41.4994 7.57456V22.395C41.5023 22.4172 41.5023 22.4397 41.4994 22.4618C40.9531 24.3918 38.6894 24.9744 36.9143 24.674C34.3926 24.2492 33.3396 22.131 33.4306 19.6913C33.4306 19.6064 33.464 8.40001 33.4701 7.57456C33.4701 7.42089 33.409 7.27348 33.3003 7.16479C33.1916 7.0561 33.0442 6.995 32.8905 6.995H27.216C27.0636 6.995 26.9174 7.05533 26.8094 7.16282C26.7014 7.2703 26.6403 7.41607 26.6394 7.56852C26.6394 9.99609 26.6212 21.6668 26.6212 21.6668C26.6212 23.4875 27.1917 29.3865 33.1211 30.4669C35.9098 30.9736 39.2266 30.0784 41.9059 28.1728C41.9306 28.1544 41.9588 28.1411 41.9886 28.1339C42.0186 28.1266 42.0496 28.1255 42.08 28.1306C42.1104 28.1357 42.1393 28.1469 42.1652 28.1636C42.1912 28.1801 42.2134 28.2019 42.2307 28.2274C42.8762 29.1177 43.7945 29.7729 44.8464 30.0936C46.4112 30.6082 48.5368 30.4006 49.1789 30.3379L49.1949 30.3364C49.2957 30.3253 49.3897 30.2801 49.4614 30.2084C49.5331 30.1367 49.5782 30.0426 49.5894 29.9418L50.1325 25.9485C50.1528 25.8339 50.1269 25.7157 50.0604 25.6202C49.9938 25.5247 49.8921 25.4594 49.7775 25.4387ZM163.544 16.7205C163.341 14.12 162.536 11.4071 160.885 9.4377L160.841 9.38451L160.799 9.33383C160.12 8.51562 158.303 6.32815 152.711 6.34558C150.42 6.34558 148.126 6.50034 145.844 6.71883C144.538 6.83717 143.234 6.97065 141.932 7.10721C141.089 7.19583 141.091 7.70727 141.095 8.39541C141.095 8.43774 141.095 8.48074 141.095 8.52439V36.0837C141.078 36.2177 141.088 36.3538 141.123 36.484C141.159 36.6142 141.221 36.736 141.304 36.8423C141.51 36.9908 141.765 37.0558 142.017 37.0244H147.012C147.135 37.0591 147.264 37.0611 147.388 37.0303C147.512 36.9994 147.626 36.9366 147.717 36.8483C147.809 36.7599 147.877 36.649 147.912 36.5266C147.948 36.4042 147.952 36.2745 147.922 36.1504C147.934 34.5496 147.931 32.9702 147.927 31.3856C147.924 30.5913 147.922 29.7955 147.922 28.9951C147.922 28.9526 147.933 28.9108 147.956 28.8748C147.978 28.8387 148.01 28.8097 148.048 28.7915C148.087 28.7733 148.129 28.7665 148.172 28.7719C148.214 28.7774 148.254 28.7948 148.286 28.8221C150.277 30.5548 153.254 31.0343 155.809 30.2939C158.516 29.517 160.761 27.4415 162.051 24.932C163.341 22.4224 163.759 19.5365 163.544 16.7205ZM156.565 20.0403C155.994 22.2707 154.971 23.9852 151.9 24.1702C150.365 24.2583 147.925 23.3904 147.925 21.9611V13.413C147.925 13.0852 147.962 12.8455 148.281 12.7029C148.939 12.3994 150.708 12.1536 152.065 12.1961C157.903 12.363 156.862 18.9388 156.579 20.0403H156.565ZM67.6414 17.9405C67.1555 18.6293 67.1555 18.8629 67.6107 19.5063L75.6591 29.857C75.7062 29.9233 75.7347 30.0017 75.7402 30.0832C75.7457 30.1647 75.7282 30.2461 75.6887 30.3182C75.6525 30.3914 75.5965 30.4528 75.5264 30.4953C75.4573 30.5377 75.3761 30.5595 75.2949 30.5579H68.6669C68.5934 30.5576 68.5221 30.5392 68.4574 30.5042C68.3927 30.4692 68.3379 30.419 68.2973 30.3576L61.3666 21.3694C61.3238 21.3148 61.2646 21.2747 61.1988 21.2544C61.1319 21.234 61.0617 21.2344 60.9948 21.2556C60.929 21.2766 60.8708 21.3175 60.8291 21.3726C60.7864 21.4277 60.7622 21.4943 60.7589 21.5637V30.1149C60.7589 30.2326 60.7107 30.3454 60.6273 30.4283C60.544 30.5113 60.431 30.5579 60.3136 30.5579H54.3295C54.2121 30.5572 54.1002 30.5102 54.0169 30.4273C53.9335 30.3444 53.8875 30.2322 53.8864 30.1149V1.22642C53.8853 1.13837 53.9017 1.05106 53.9357 0.969532C53.9686 0.888007 54.018 0.813885 54.0794 0.751498C54.1419 0.689101 54.2154 0.639668 54.2966 0.606073C54.3788 0.572478 54.4655 0.55539 54.5543 0.555795H60.0921C60.2676 0.555795 60.4365 0.625804 60.5615 0.750434C60.6866 0.875065 60.7568 1.04409 60.7568 1.22035V16.3929C60.7589 16.4547 60.7798 16.5145 60.8171 16.5641C60.8544 16.6138 60.9048 16.6507 60.9641 16.6703C61.0233 16.6898 61.0858 16.6908 61.1461 16.6732C61.2053 16.6556 61.258 16.6202 61.2964 16.5719C62.6312 14.7512 67.2345 8.29987 67.9726 7.24683C68.0132 7.18771 68.067 7.13945 68.1306 7.10611C68.1942 7.07277 68.2644 7.05544 68.3368 7.05566H74.809C74.8924 7.05357 74.9746 7.07606 75.0448 7.12026C75.1161 7.16457 75.1721 7.22862 75.2061 7.30452C75.2445 7.37845 75.2609 7.46202 75.2532 7.54494C75.2445 7.62786 75.2127 7.70672 75.1611 7.77187L67.6414 17.9405ZM206.543 19.5063C206.09 18.8629 206.09 18.6293 206.576 17.9405L214.108 7.77187C214.158 7.70584 214.189 7.62731 214.197 7.54483C214.204 7.46235 214.19 7.37932 214.153 7.30496C214.117 7.2306 214.06 7.16797 213.989 7.12388C213.919 7.0799 213.839 7.05621 213.756 7.05566H207.271C207.199 7.05522 207.129 7.07244 207.065 7.10578C207.002 7.13912 206.947 7.1876 206.907 7.24683C206.169 8.29987 201.566 14.7512 200.231 16.5719C200.193 16.6215 200.14 16.6579 200.08 16.6762C200.02 16.6945 199.956 16.6937 199.897 16.6741C199.836 16.6545 199.785 16.617 199.747 16.5666C199.71 16.5162 199.689 16.4555 199.688 16.3929V1.22034C199.688 1.13307 199.671 1.04665 199.638 0.966023C199.604 0.885396 199.555 0.812141 199.493 0.750423C199.431 0.688717 199.358 0.639767 199.278 0.606369C199.197 0.572971 199.11 0.555784 199.023 0.555784H193.474C193.386 0.555784 193.299 0.572971 193.219 0.606369C193.138 0.639767 193.065 0.688717 193.003 0.750423C192.942 0.812141 192.892 0.885396 192.859 0.966023C192.825 1.04665 192.809 1.13307 192.809 1.22034V30.1088C192.809 30.2266 192.857 30.3392 192.941 30.4222C193.024 30.5053 193.137 30.5518 193.254 30.5518H199.238C199.356 30.551 199.469 30.5041 199.551 30.4211C199.634 30.3382 199.682 30.226 199.682 30.1088V21.5637C199.687 21.4951 199.712 21.4296 199.754 21.3757C199.797 21.3216 199.854 21.2816 199.92 21.2606C199.984 21.2398 200.054 21.2389 200.12 21.2583C200.186 21.2777 200.245 21.3164 200.289 21.3694L207.22 30.3576C207.26 30.4187 207.315 30.4689 207.38 30.5038C207.445 30.5387 207.516 30.5573 207.59 30.5579H214.22C214.302 30.5588 214.382 30.5368 214.451 30.4944C214.521 30.452 214.577 30.391 214.615 30.3182C214.653 30.2461 214.671 30.1644 214.665 30.0827C214.66 30.001 214.63 29.9226 214.582 29.857L206.543 19.5063ZM99.4422 25.4345L99.5124 25.4507C99.6232 25.4763 99.7208 25.5428 99.7844 25.6368C99.848 25.7308 99.8733 25.8454 99.8557 25.9576L99.3062 29.9509C99.2963 30.0509 99.2525 30.1444 99.1823 30.2157C99.111 30.287 99.0178 30.3318 98.9179 30.3424L98.8127 30.3535C98.0438 30.4349 95.6714 30.686 93.9659 29.8752C93.1575 29.5176 92.46 28.9484 91.9477 28.2274C91.9324 28.2027 91.9126 28.1816 91.8885 28.165C91.8644 28.1486 91.8381 28.1372 91.8095 28.1315C91.781 28.1258 91.7514 28.126 91.7229 28.132C91.6944 28.138 91.6681 28.1499 91.645 28.1667C90.7764 28.7918 86.9924 31.2254 82.7225 30.4365C81.4798 30.2211 80.3139 29.6845 79.3421 28.8798C76.1592 26.1488 75.9475 20.2891 79.0723 17.3699C79.8565 16.714 80.7439 16.1912 81.697 15.8223C85.7365 14.0714 91.2282 14.3324 91.2282 14.3324C91.2896 13.2824 91.0955 11.9412 88.4796 11.7045C86.376 11.4727 82.4889 12.156 81.3372 12.3586C81.2374 12.376 81.1585 12.39 81.1025 12.3994C81.0159 12.4154 80.9259 12.4139 80.8404 12.3948C80.7537 12.3757 80.6715 12.3395 80.6002 12.2883C80.5278 12.2371 80.4664 12.1719 80.4203 12.0967C80.3731 12.0214 80.3424 11.9377 80.3293 11.8501L79.0723 8.11473C79.0581 8.02841 79.0603 7.94001 79.08 7.85468C79.0986 7.76935 79.1348 7.68862 79.1864 7.61733C79.2368 7.54593 79.3016 7.48539 79.375 7.43899C79.4496 7.3926 79.5319 7.36134 79.6185 7.34697C80.814 7.15887 84.1495 6.68241 85.5939 6.52765C92.9842 5.65032 95.2469 8.08622 96.0761 8.97858L96.0772 8.97902C96.1277 9.03397 96.1737 9.0831 96.2143 9.12522C98.0142 11.1401 98.1348 13.9803 98.1173 16.5384L98.069 23.2144C98.069 25.1215 98.7205 25.27 99.4422 25.4345ZM90.852 23.7848C91.0802 23.5511 91.2096 23.2376 91.2107 22.9109V19.0328C91.2107 18.6255 90.1095 18.7455 89.8375 18.7753C89.8046 18.7788 89.7848 18.781 89.7783 18.781C87.9214 19.0328 86.6041 19.3787 85.7639 19.8157C84.6957 20.3801 84.1582 21.2329 84.1582 22.3647C84.1429 22.75 84.2174 23.1335 84.3754 23.4852C84.5333 23.8369 84.7702 24.1472 85.0686 24.3918C87.3137 25.994 90.1237 24.5586 90.852 23.7848ZM136.967 25.4507L136.896 25.4344C136.178 25.2699 135.526 25.1209 135.526 23.2144L135.575 16.5384C135.593 13.9803 135.469 11.1401 133.672 9.12522C133.631 9.08245 133.584 9.03243 133.532 8.97639C132.698 8.08216 130.432 5.65098 123.052 6.52765C121.608 6.68241 118.272 7.15887 117.077 7.34697C116.903 7.37735 116.749 7.47519 116.647 7.61898C116.545 7.76277 116.504 7.941 116.534 8.11473L117.79 11.8501C117.803 11.9377 117.835 12.0214 117.881 12.0967C117.928 12.1719 117.988 12.2371 118.061 12.2883C118.133 12.3395 118.214 12.3757 118.301 12.3948C118.387 12.4139 118.476 12.4154 118.564 12.3994L118.614 12.3902C119.439 12.2395 123.699 11.461 125.931 11.6984C128.547 11.9351 128.741 13.2764 128.683 14.3263C128.683 14.3263 123.188 14.0653 119.15 15.8163C118.2 16.1864 117.317 16.7091 116.537 17.3639C113.414 20.283 113.623 26.1427 116.807 28.8738C117.779 29.6784 118.943 30.2151 120.187 30.4305C124.459 31.2194 128.241 28.7857 129.109 28.1606C129.132 28.1438 129.159 28.132 129.188 28.126C129.215 28.1198 129.245 28.1197 129.273 28.1254C129.302 28.131 129.329 28.1425 129.352 28.159C129.376 28.1755 129.396 28.1967 129.411 28.2213C129.924 28.9422 130.621 29.5116 131.429 29.869C133.135 30.6799 135.507 30.4288 136.276 30.3474L136.383 30.3364C136.482 30.3257 136.575 30.281 136.646 30.2097C136.716 30.1384 136.761 30.0448 136.771 29.9449L137.335 25.9576C137.352 25.842 137.323 25.7243 137.255 25.6297C137.186 25.5351 137.082 25.4709 136.967 25.4507ZM128.681 22.9109C128.679 23.2376 128.55 23.5511 128.322 23.7848C127.591 24.5586 124.782 25.994 122.539 24.3918C122.24 24.1471 122.004 23.8367 121.846 23.4851C121.688 23.1334 121.613 22.75 121.628 22.3647C121.628 21.2329 122.166 20.3801 123.236 19.8157C124.078 19.3787 125.392 19.0328 127.248 18.781C127.254 18.781 127.275 18.7788 127.307 18.7753C127.58 18.7455 128.683 18.6254 128.683 19.0328L128.681 22.9109ZM188.569 25.4345C188.592 25.4399 188.616 25.4454 188.639 25.4507C188.75 25.4755 188.847 25.5406 188.912 25.6331C188.977 25.7257 189.005 25.8392 188.991 25.9514L188.441 29.9449C188.432 30.0448 188.388 30.1384 188.318 30.2097C188.246 30.281 188.153 30.3257 188.053 30.3364C188.023 30.3395 187.986 30.3434 187.946 30.3477C187.172 30.4293 184.802 30.6792 183.101 29.869C182.292 29.5123 181.595 28.9429 181.083 28.2213C181.068 28.197 181.048 28.1762 181.024 28.1599C181 28.1436 180.973 28.1323 180.945 28.1267C180.916 28.121 180.887 28.1211 180.859 28.127C180.831 28.1328 180.803 28.1442 180.78 28.1606C179.912 28.7857 176.128 31.2194 171.859 30.4305C170.615 30.2157 169.449 29.679 168.479 28.8738C165.294 26.1427 165.083 20.283 168.208 17.3639C168.989 16.7091 169.871 16.1864 170.82 15.8163C174.86 14.0653 180.353 14.3263 180.353 14.3263C180.41 13.2764 180.219 11.9351 177.603 11.6984C175.359 11.46 171.071 12.2462 170.275 12.3922L170.234 12.3994C170.148 12.4155 170.058 12.414 169.971 12.3949C169.886 12.3758 169.803 12.3396 169.731 12.2885C169.659 12.2373 169.597 12.1721 169.55 12.0969C169.503 12.0217 169.472 11.9378 169.458 11.8501L168.202 8.11473C168.174 7.94067 168.215 7.76244 168.317 7.61876C168.419 7.47508 168.574 7.37746 168.748 7.34697C169.941 7.15887 173.278 6.68241 174.72 6.52765C182.111 5.65032 184.373 8.08622 185.203 8.97858C185.254 9.03375 185.299 9.08299 185.341 9.12522C187.137 11.1401 187.261 13.9803 187.244 16.5384L187.194 23.2144C187.194 25.1215 187.847 25.27 188.569 25.4345ZM179.991 23.7848C180.219 23.5511 180.347 23.2376 180.349 22.9109V19.0328C180.349 18.6255 179.248 18.7455 178.975 18.7753C178.943 18.7788 178.922 18.781 178.917 18.781C177.057 19.0328 175.743 19.3787 174.902 19.8157C173.831 20.3801 173.297 21.2329 173.297 22.3647C173.281 22.75 173.356 23.1335 173.514 23.4852C173.672 23.8369 173.909 24.1472 174.207 24.3918C176.452 25.994 179.26 24.5586 179.991 23.7848Z" fill="#283618"/>
</svg>
