<svg width="50" height="50" viewBox="0 0 50 50" fill="none" xmlns="http://www.w3.org/2000/svg">
<path id="Vector" d="M45 16.25C45 17.9076 44.3415 19.4973 43.1694 20.6694C41.9973 21.8415 40.4076 22.5 38.75 22.5C36.05 22.5 33.75 20.775 32.9 18.4C31.8 19.375 30.35 20 28.75 20C27.35 20 26.05 19.525 25 18.75C23.95 19.525 22.675 20 21.25 20C19.65 20 18.2 19.375 17.1 18.4C16.25 20.775 13.95 22.5 11.25 22.5C9.5924 22.5 8.00269 21.8415 6.83058 20.6694C5.65848 19.4973 5 17.9076 5 16.25C5 13.15 7.275 10.575 10.25 10.1C10.1 9.675 10 9.225 10 8.75C10 7.75544 10.3951 6.80161 11.0983 6.09835C11.8016 5.39509 12.7554 5 13.75 5C14.25 5 14.725 5.1 15.15 5.275C15.575 3.675 17.025 2.5 18.75 2.5C19.375 2.5 20 2.675 20.45 2.925C21.25 1.25 22.975 0 25 0C27.025 0 28.75 1.25 29.55 2.925C30 2.675 30.625 2.5 31.25 2.5C32.975 2.5 34.425 3.675 34.85 5.275C35.275 5.1 35.75 5 36.25 5C37.2446 5 38.1984 5.39509 38.9016 6.09835C39.6049 6.80161 40 7.75544 40 8.75C40 9.225 39.9 9.675 39.75 10.1C42.725 10.575 45 13.15 45 16.25ZM20 25C19.337 25 18.7011 25.2634 18.2322 25.7322C17.7634 26.2011 17.5 26.837 17.5 27.5C17.5 28.163 17.7634 28.7989 18.2322 29.2678C18.7011 29.7366 19.337 30 20 30C20.663 30 21.2989 29.7366 21.7678 29.2678C22.2366 28.7989 22.5 28.163 22.5 27.5C22.5 26.837 22.2366 26.2011 21.7678 25.7322C21.2989 25.2634 20.663 25 20 25ZM30 25C29.337 25 28.7011 25.2634 28.2322 25.7322C27.7634 26.2011 27.5 26.837 27.5 27.5C27.5 28.163 27.7634 28.7989 28.2322 29.2678C28.7011 29.7366 29.337 30 30 30C30.663 30 31.2989 29.7366 31.7678 29.2678C32.2366 28.7989 32.5 28.163 32.5 27.5C32.5 26.837 32.2366 26.2011 31.7678 25.7322C31.2989 25.2634 30.663 25 30 25ZM45.575 21.65C43.975 23.675 41.525 25 38.75 25C37.625 25 36.55 24.75 35.525 24.325C35.5 30.7 34.575 38.4 31.125 42.375C29.825 43.85 28.25 44.65 26.25 44.9V40H23.75V44.9C21.75 44.65 20.175 43.875 18.875 42.375C15.4 38.375 14.475 30.725 14.45 24.35C13.45 24.75 12.375 25 11.25 25C8.475 25 6.025 23.675 4.425 21.65C2.2 23.875 0 25 0 25C0 25 2.5 30 7.5 30C8.4 30 9.1 29.9 9.7 29.775C10.55 39.325 13.95 50 25 50C36.05 50 39.45 39.325 40.3 29.775C40.9 29.9 41.6 30 42.5 30C47.5 30 50 25 50 25C50 25 47.8 23.875 45.575 21.65Z" fill="#283618"/>
</svg>
