<svg width="217" height="70" viewBox="0 0 217 70" fill="none" xmlns="http://www.w3.org/2000/svg">
<g id="Shopee svg" clip-path="url(#clip0_8_65)">
<g id="Group">
<path id="Vector" fill-rule="evenodd" clip-rule="evenodd" d="M39.8164 48.7841C39.4374 51.9146 37.5423 54.4217 34.6069 55.6771C32.9722 56.3764 30.7772 56.754 29.0399 56.6354C26.3296 56.5317 23.7833 55.872 21.4363 54.666C20.5978 54.2349 19.3478 53.3741 18.3881 52.5679C18.145 52.3642 18.1161 52.2337 18.2769 52.0053C18.3638 51.8742 18.5239 51.6377 18.8779 51.1186C19.3913 50.3657 19.4553 50.2713 19.5131 50.1831C19.6773 49.9307 19.9442 49.9087 20.2074 50.1161C20.2351 50.1376 20.2351 50.1376 20.256 50.154C20.2991 50.1875 20.2991 50.1875 20.401 50.2667C20.5041 50.3471 20.5653 50.3946 20.59 50.4132C23.1212 52.3975 26.0693 53.5419 29.0454 53.6563C33.1862 53.5998 36.1638 51.7363 36.6973 48.8748C37.284 45.7256 34.8141 43.0052 29.9819 41.4889C28.4707 41.0148 24.6507 39.4843 23.9464 39.0708C20.6388 37.1283 19.0924 34.584 19.3122 31.4413C19.6489 27.085 23.6892 23.836 28.7943 23.8142C31.0774 23.8096 33.3555 24.2845 35.5442 25.2076C36.3191 25.5345 37.7027 26.2881 38.1804 26.6451C38.4555 26.8474 38.5099 27.0831 38.3522 27.3374C38.2641 27.4848 38.1185 27.7186 37.8116 28.206L37.8082 28.2113C37.4043 28.8532 37.3917 28.8732 37.299 29.0234C37.1388 29.2674 36.9506 29.2902 36.6619 29.1068C34.3199 27.532 31.7237 26.7397 28.8683 26.6825C25.3135 26.7529 22.6491 28.8705 22.4739 31.7552C22.4274 34.3607 24.3797 36.2628 28.5968 37.7131C37.157 40.4665 40.4329 43.6945 39.8164 48.7841ZM29.2446 3.80606C34.8178 3.80606 39.3605 9.09983 39.573 15.7265H18.9165C19.129 9.09983 23.6717 3.80606 29.2446 3.80606ZM58.0873 16.9724C58.0873 16.2843 57.5336 15.7265 56.8509 15.7265H43.4619C43.1334 6.97684 36.8938 0 29.2446 0C21.5957 0 15.3561 6.97684 15.0276 15.7265L1.61941 15.7268C0.947125 15.739 0.405848 16.2921 0.405848 16.9724C0.405848 17.0049 0.407065 17.0372 0.409486 17.069H0.400024L2.31135 59.2413C2.3116 59.3587 2.31596 59.477 2.3247 59.5961C2.32664 59.623 2.32882 59.6497 2.33101 59.6763L2.33513 59.7653L2.33974 59.77C2.63015 62.7046 4.75789 65.0682 7.65109 65.1772L7.65763 65.1836H50.1894C50.2095 65.1838 50.2297 65.1841 50.2498 65.1841C50.27 65.1841 50.2901 65.1838 50.3102 65.1836H50.4007L50.4027 65.1819C53.3463 65.1014 55.7308 62.7048 55.9826 59.7341L55.9841 59.7326L55.986 59.6927C55.9884 59.6614 55.9907 59.6304 55.9926 59.5991C55.9973 59.5242 56.0003 59.4497 56.0016 59.3756L58.0871 17.0367H58.0856C58.0869 17.0154 58.0873 16.9939 58.0873 16.9724ZM199.877 44.458C200.696 41.7825 203.174 39.9989 206.065 39.9989C208.825 39.9989 211.453 41.8749 212.361 44.4529L212.423 44.63H199.824L199.877 44.458ZM215.227 48.3341C215.244 48.3348 215.244 48.3348 215.269 48.3351C215.294 48.3348 215.294 48.3348 215.319 48.3341C215.923 48.3064 216.4 47.7917 216.4 47.1653C216.4 47.1349 216.399 47.1087 216.397 47.0667C216.397 47.059 216.397 47.0437 216.397 46.9944C216.397 41.0857 211.769 36.2973 206.062 36.2973C200.354 36.2973 195.726 41.0857 195.726 46.9944C195.726 47.4349 195.752 47.8742 195.803 48.3108L195.807 48.3341L195.823 48.4494C196.107 50.5754 197.013 52.5267 198.445 54.1057C198.444 54.105 198.446 54.1064 198.453 54.1147C200.04 55.8628 202.195 57.0542 204.584 57.4998L204.616 57.5059V57.5027L204.771 57.5286C204.851 57.5422 204.935 57.5556 205.048 57.573C208.193 57.9517 210.983 57.4978 213.346 56.3069C213.928 56.0135 214.451 55.6897 214.904 55.3478C215.05 55.2376 215.181 55.131 215.295 55.0313C215.353 54.9798 215.4 54.9366 215.424 54.9116C215.957 54.3619 215.991 54.167 215.669 53.6651C215.315 53.1011 215.003 52.6206 214.735 52.2228C214.641 52.0835 214.56 51.9648 214.491 51.8663C214.453 51.8121 214.453 51.8121 214.429 51.7779C214.42 51.7646 214.42 51.7646 214.414 51.7561L214.41 51.7517C214.119 51.3889 213.92 51.3557 213.596 51.6413C213.562 51.6719 213.447 51.761 213.426 51.783C211.153 53.8033 208.049 54.4532 204.95 53.804C204.372 53.6489 203.833 53.4518 203.335 53.214C201.394 52.2393 200.018 50.5028 199.621 48.4928L199.589 48.3341L215.227 48.3341ZM175.283 44.458C176.102 41.7825 178.58 39.9989 181.471 39.9989C184.231 39.9989 186.859 41.8749 187.767 44.4529L187.829 44.63H175.23L175.283 44.458ZM190.633 48.3341C190.65 48.3348 190.65 48.3348 190.675 48.3351C190.7 48.3348 190.7 48.3348 190.725 48.3341C191.329 48.3064 191.806 47.7917 191.806 47.1653C191.806 47.1349 191.805 47.1087 191.803 47.0667C191.803 47.059 191.803 47.0437 191.803 46.9944C191.803 41.0857 187.175 36.2973 181.468 36.2973C175.761 36.2973 171.132 41.0857 171.132 46.9944C171.132 47.4349 171.158 47.8742 171.21 48.3108L171.213 48.3341L171.229 48.4494C171.513 50.5754 172.42 52.5267 173.851 54.1057C173.85 54.105 173.852 54.1064 173.859 54.1147C175.446 55.8628 177.601 57.0542 179.99 57.4998L180.022 57.5059V57.5027L180.177 57.5286C180.257 57.5422 180.341 57.5556 180.454 57.573C183.599 57.9517 186.39 57.4978 188.752 56.3069C189.334 56.0135 189.857 55.6897 190.31 55.3478C190.456 55.2376 190.587 55.131 190.701 55.0313C190.759 54.9798 190.806 54.9366 190.83 54.9116C191.363 54.3619 191.397 54.167 191.075 53.6651C190.721 53.1011 190.409 52.6206 190.141 52.2228C190.047 52.0835 189.966 51.9648 189.897 51.8663C189.859 51.8121 189.859 51.8121 189.835 51.7779C189.826 51.7646 189.826 51.7646 189.82 51.7561L189.817 51.7517C189.526 51.3889 189.326 51.3557 189.003 51.6413C188.969 51.6719 188.853 51.761 188.833 51.783C186.56 53.8033 183.456 54.4532 180.357 53.804C179.779 53.6489 179.24 53.4518 178.742 53.214C176.801 52.2393 175.425 50.5028 175.028 48.4928L174.996 48.3341L190.633 48.3341ZM156.513 54.2256C152.669 54.2256 149.525 51.1751 149.428 47.3522V46.9924C149.524 43.1756 152.669 40.1246 156.513 40.1246C160.426 40.1246 163.599 43.2812 163.599 47.1751C163.599 51.069 160.426 54.2256 156.513 54.2256ZM156.515 36.3843C153.994 36.3843 151.585 37.2438 149.649 38.8202L149.429 38.9993V37.0263C149.429 36.5001 149.316 36.3843 148.784 36.3843H146.309C145.77 36.3843 145.664 36.4915 145.664 37.0263V68.478C145.664 68.9946 145.784 69.12 146.309 69.12H148.784C149.311 69.12 149.429 68.9973 149.429 68.478V55.3617L149.649 55.5407C151.585 57.1175 153.994 57.977 156.515 57.977C162.508 57.977 167.366 53.1432 167.366 47.1805C167.366 41.218 162.508 36.3843 156.515 36.3843ZM131.032 53.9847C127.111 53.9847 123.932 50.8558 123.932 46.995C123.932 43.1342 127.111 40.0051 131.032 40.0051C134.953 40.0051 138.132 43.1342 138.132 46.995C138.132 50.8555 134.953 53.9847 131.032 53.9847ZM131.035 36.2973C125.03 36.2973 120.163 41.0893 120.163 47.0003C120.163 52.9111 125.03 57.7034 131.035 57.7034C137.039 57.7034 141.906 52.9111 141.906 47.0003C141.906 41.0893 137.039 36.2973 131.035 36.2973ZM106.8 36.535C104.608 36.535 102.487 37.2403 100.727 38.5441L100.513 38.7026V24.0957C100.513 23.6116 100.354 23.4536 99.8707 23.4536H97.2807C96.7577 23.4536 96.6382 23.5788 96.6382 24.0957V57.4175C96.6382 57.922 96.7673 58.0601 97.2807 58.0601H99.8707C100.351 58.0601 100.513 57.8943 100.513 57.4175V46.5336C100.54 43.1074 103.347 40.3419 106.8 40.3419C110.261 40.3419 113.072 43.1208 113.086 46.5583V57.4175C113.086 57.9688 113.178 58.0599 113.729 58.0599H116.312C116.86 58.0599 116.955 57.9661 116.955 57.4175V46.5265C116.934 41.0326 112.358 36.535 106.8 36.535ZM70.7096 52.0158L70.7036 52.0251C70.3343 52.5851 70.1796 52.8207 70.0931 52.9559C69.802 53.3897 69.8382 53.583 70.2828 53.9592C71.3203 54.7965 72.6541 55.6758 73.554 56.1162C76.0577 57.3416 78.7619 57.9892 81.6276 58.0478C83.4788 58.1413 85.8038 57.7007 87.5351 56.9278C90.6693 55.5283 92.6657 52.8007 93.0156 49.441C93.5824 43.9972 90.0436 40.594 80.9285 37.8515L80.9261 37.8507C76.6793 36.4798 74.6843 34.6573 74.6836 32.1127C74.8087 29.3004 77.4138 27.1993 80.9286 27.0682C83.7598 27.0753 86.263 27.8279 88.7225 29.4122C89.2411 29.7271 89.4803 29.669 89.829 29.2162C89.869 29.1493 89.9805 28.9872 90.4467 28.3171L90.4482 28.3149C90.8835 27.689 91.0268 27.4801 91.0625 27.4183C91.3563 26.8649 91.3143 26.6516 90.784 26.2752C90.2617 25.9007 88.7905 25.1345 87.9491 24.7983C85.6091 23.8639 83.1899 23.4101 80.7822 23.4569C75.3028 23.5761 71.0295 27.143 70.7478 31.8223C70.5691 35.2022 72.2829 37.9201 75.8637 39.9294C76.8675 40.4598 80.5379 41.8486 82.251 42.3507C87.1221 43.7785 89.6617 46.4051 89.137 49.504C88.6603 52.3196 85.713 54.1921 81.5772 54.3203C78.5779 54.2578 75.5561 53.1576 72.9322 51.184C72.9191 51.1744 72.8526 51.1249 72.7299 51.0334C72.5575 50.9047 72.5575 50.9047 72.5318 50.8854C71.9969 50.5159 71.6822 50.5466 71.3556 51.0336C71.3163 51.0939 70.9099 51.7121 70.7096 52.0158Z" fill="#283618"/>
</g>
</g>
<defs>
<clipPath id="clip0_8_65">
<rect width="216" height="69.12" fill="white" transform="translate(0.400024)"/>
</clipPath>
</defs>
</svg>
