<svg width="219" height="49" viewBox="0 0 219 49" fill="none" xmlns="http://www.w3.org/2000/svg">
<g id="Tokopedia svg" clip-path="url(#clip0_8_62)">
<path id="Vector" fill-rule="evenodd" clip-rule="evenodd" d="M116.935 33.62C114.566 36.029 111.733 37.241 108.448 37.241C105.792 37.241 103.535 36.698 101.232 35.3555V29.8295C103.084 31.0895 105.411 32.2895 107.709 32.2895C112.499 32.2895 115.351 28.985 115.351 24.299C115.351 19.61 112.401 16.2065 107.608 16.2065C105.469 16.2065 103.734 16.9775 102.377 18.524C100.925 20.1995 100.173 22.595 100.173 25.76V47.5805H99.8126C99.1833 47.5789 98.5606 47.4537 97.9798 47.212C97.3991 46.9703 96.8718 46.6169 96.428 46.1718C95.9842 45.7268 95.6326 45.1989 95.3932 44.6183C95.1539 44.0377 95.0315 43.4158 95.0331 42.788V24.9425C95.0331 17.369 99.6502 11.255 107.587 11.255C111.503 11.255 114.686 12.5975 117.099 15.2975C119.368 17.819 120.491 21.014 120.491 24.86C120.491 28.28 119.305 31.2065 116.935 33.62ZM172.596 33.434C170.236 35.9735 167.199 37.241 163.518 37.241C159.632 37.241 156.464 35.897 154.054 33.1985C151.787 30.6455 150.662 27.4475 150.662 23.6375C150.662 16.892 155.854 11.255 162.687 11.255C165.322 11.255 167.611 11.813 169.921 13.085V18.665C168.069 17.405 165.742 16.205 163.445 16.205C158.655 16.205 155.801 19.511 155.801 24.1985C155.801 28.8215 158.82 32.291 163.544 32.291C165.682 32.291 167.444 31.487 168.851 29.8685C170.252 28.259 170.98 25.895 170.98 22.721V5.3525C170.978 4.72471 171.101 4.10276 171.34 3.52216C171.579 2.94156 171.931 2.41368 172.375 1.96865C172.818 1.52363 173.346 1.17018 173.927 0.92848C174.507 0.686782 175.13 0.561571 175.759 0.559998L176.12 0.559998V23.5355C176.12 27.581 174.953 30.893 172.596 33.434ZM187.112 8.8025C186.572 9.4085 185.799 9.6875 184.857 9.6875C183.092 9.6875 181.829 8.3825 181.829 6.626C181.829 4.829 183.068 3.6155 184.855 3.6155C186.577 3.6155 187.883 4.895 187.883 6.626C187.883 7.481 187.633 8.2175 187.112 8.8025ZM213.233 22.721C213.233 20.6885 212.466 19.079 210.926 17.861C209.539 16.7645 207.805 16.2065 205.696 16.2065C201.043 16.2065 198.055 19.853 198.055 24.3515C198.055 28.679 201.223 32.291 205.648 32.291C208.725 32.291 210.37 30.488 212.126 28.241V34.7165C211.232 35.3885 210.203 36.122 209.154 36.551C208.046 37.016 206.723 37.241 205.194 37.241C197.795 37.241 192.915 31.0955 192.915 23.9945C192.915 20.348 194.044 17.333 196.319 14.9825C198.732 12.491 201.897 11.255 205.773 11.255C213.118 11.255 218.375 15.485 218.375 23.1275V36.7325H218.014C217.384 36.7309 216.761 36.6057 216.18 36.3639C215.599 36.1221 215.072 35.7686 214.628 35.3234C214.184 34.8782 213.832 34.3502 213.593 33.7694C213.354 33.1886 213.231 32.5665 213.233 31.9385V22.721ZM142.859 21.26C142.21 19.2455 141.395 18.254 139.522 17.2055C135.067 14.7095 130.681 16.835 128.643 21.2405L142.859 21.26ZM138.937 37.1645C135.653 37.865 132.431 37.325 129.288 35.564C126.221 33.8465 124.168 31.2935 123.139 27.9185C121.058 21.0935 125.32 13.4885 132.177 11.648C135.575 10.7345 138.835 11.1485 141.93 12.8825C147.072 15.7655 148.945 20.2235 148.619 25.9685L127.907 25.925C128.213 28.268 129.661 30.101 131.696 31.241C133.762 32.3975 135.659 32.675 137.42 32.126C139.374 31.511 140.962 29.9105 142.252 28.421L146.472 31.505C144.751 34.595 142.407 36.425 138.937 37.1645ZM182.286 11.765H187.426V36.7325H187.065C186.436 36.7309 185.813 36.6057 185.232 36.3639C184.651 36.1221 184.124 35.7685 183.68 35.3233C183.236 34.8781 182.885 34.3501 182.645 33.7693C182.406 33.1885 182.284 32.5664 182.286 31.9385V11.765ZM7.9233 36.731C2.89426 36.731 0.40004 33.302 0.40004 28.514V10.3445C0.398458 9.71652 0.520867 9.09437 0.760278 8.51359C0.999688 7.93281 1.35141 7.40476 1.79537 6.95959C2.23932 6.51443 2.76681 6.16087 3.34772 5.91909C3.92863 5.67732 4.55158 5.55207 5.18101 5.5505H5.54183V11.765H14.2273V16.715H5.54183V29.087C5.54183 31.19 6.47698 31.781 8.48258 31.781H14.2258V36.731H7.9233ZM37.7788 33.5765C35.2379 36.017 32.1859 37.241 28.6408 37.241C25.1273 37.241 22.0918 36.0155 19.5525 33.5765C17.0041 31.1255 15.7337 28.007 15.7337 24.248C15.7337 16.916 21.3175 11.255 28.6408 11.255C32.1544 11.255 35.1989 12.4895 37.7532 14.948C40.3181 17.4125 41.599 20.522 41.599 24.248C41.599 28.007 40.3271 31.1255 37.7803 33.5765H37.7788ZM61.8159 17.7725C61.0612 19.04 60.4763 19.9505 60.0644 20.4995C59.6119 21.0965 59.1638 21.5735 58.7203 21.9035C62.2925 23.0615 63.6231 25.5425 63.6231 29.24V36.731H63.2622C61.9913 36.7278 60.7737 36.2212 59.8771 35.3224C58.9806 34.4237 58.4785 33.2065 58.4813 31.9385V29.7485C58.4813 27.3545 57.4108 25.73 54.882 25.73H50.2093V36.731H49.8485C48.5779 36.7274 47.3608 36.2205 46.4649 35.3218C45.5689 34.4231 45.0673 33.2061 45.0705 31.9385V5.3525C45.0687 4.72478 45.1909 4.10287 45.4301 3.52228C45.6692 2.94169 46.0207 2.41379 46.4644 1.96875C46.9081 1.5237 47.4353 1.17022 48.016 0.928509C48.5966 0.686792 49.2193 0.561571 49.8485 0.559998L50.2093 0.559998V20.729H51.7293C53.3981 20.729 54.4956 20.156 55.1271 19.073L59.4435 11.7665L65.3024 11.7605L61.8129 17.7725H61.8159ZM88.3518 33.5765C85.8109 36.017 82.7589 37.241 79.2138 37.241C75.7003 37.241 72.6663 36.0155 70.1255 33.5765C67.5771 31.1255 66.3067 28.007 66.3067 24.248C66.3067 16.916 71.8905 11.255 79.2138 11.255C82.7289 11.255 85.7719 12.4895 88.3277 14.948C90.8911 17.4125 92.172 20.522 92.172 24.248C92.172 28.007 90.8986 31.1255 88.3518 33.5765ZM84.6413 18.4385C83.225 16.952 81.4254 16.2065 79.2138 16.2065C74.4825 16.2065 71.6515 19.664 71.6515 24.248C71.6515 28.769 74.5501 32.291 79.2138 32.291C83.879 32.291 86.7762 28.769 86.7762 24.248C86.7762 21.848 86.0575 19.922 84.6413 18.4385ZM34.0698 18.4385C32.6535 16.952 30.8524 16.2065 28.6423 16.2065C23.911 16.2065 21.08 19.664 21.08 24.248C21.08 28.769 23.9786 32.291 28.6423 32.291C33.306 32.291 36.2047 28.769 36.2047 24.248C36.2047 21.848 35.486 19.922 34.0698 18.4385Z" fill="#283618"/>
</g>
<defs>
<clipPath id="clip0_8_62">
<rect width="218" height="48" fill="white" transform="translate(0.400024 0.559998)"/>
</clipPath>
</defs>
</svg>
